<svg width="16" height="16" viewBox="0 0 16 16" fill="none" xmlns="http://www.w3.org/2000/svg">
<path fill-rule="evenodd" clip-rule="evenodd" d="M10.6673 3.33333H5.33398C4.96579 3.33333 4.66732 3.63181 4.66732 4V6.66667C4.66732 8.50762 6.1597 10 8.00065 10C9.8416 10 11.334 8.50762 11.334 6.66667V4C11.334 3.63181 11.0355 3.33333 10.6673 3.33333ZM5.33398 2C4.22941 2 3.33398 2.89543 3.33398 4V6.66667C3.33398 9.244 5.42332 11.3333 8.00065 11.3333C10.578 11.3333 12.6673 9.244 12.6673 6.66667V4C12.6673 2.89543 11.7719 2 10.6673 2H5.33398Z" fill="#FCFCFD"/>
<path fill-rule="evenodd" clip-rule="evenodd" d="M0.666016 5.33398C0.666016 4.22942 1.56145 3.33398 2.66602 3.33398H4.66602V8.66732H3.33268C1.85992 8.66732 0.666016 7.47341 0.666016 6.00065V5.33398ZM2.66602 4.66732H3.33268V7.33398C2.5963 7.33398 1.99935 6.73703 1.99935 6.00065V5.33398C1.99935 4.96579 2.29783 4.66732 2.66602 4.66732Z" fill="#FCFCFD"/>
<path fill-rule="evenodd" clip-rule="evenodd" d="M15.3327 5.33398C15.3327 4.22942 14.4373 3.33398 13.3327 3.33398H11.3327V8.66732H12.666C14.1388 8.66732 15.3327 7.47341 15.3327 6.00065V5.33398ZM13.3327 4.66732H12.666V7.33398C13.4024 7.33398 13.9993 6.73703 13.9993 6.00065V5.33398C13.9993 4.96579 13.7009 4.66732 13.3327 4.66732Z" fill="#FCFCFD"/>
<path d="M8.00065 10C7.63246 10 7.33398 10.2985 7.33398 10.6667V12.6667H6.00065C5.63246 12.6667 5.33398 12.9651 5.33398 13.3333C5.33398 13.7015 5.63246 14 6.00065 14H10.0007C10.3688 14 10.6673 13.7015 10.6673 13.3333C10.6673 12.9651 10.3688 12.6667 10.0007 12.6667H8.66732V10.6667C8.66732 10.2985 8.36884 10 8.00065 10Z" fill="#FCFCFD"/>
</svg>
