<svg width="17" height="16" viewBox="0 0 17 16" fill="none" xmlns="http://www.w3.org/2000/svg">
<path fill-rule="evenodd" clip-rule="evenodd" d="M8.19987 14.6673C11.8818 14.6673 14.8665 11.6825 14.8665 8.00065C14.8665 4.31875 11.8818 1.33398 8.19987 1.33398C4.51797 1.33398 1.5332 4.31875 1.5332 8.00065C1.5332 11.6825 4.51797 14.6673 8.19987 14.6673ZM12.4131 11.2711C13.1151 10.368 13.5332 9.23315 13.5332 8.00065C13.5332 5.28091 11.4974 3.03665 8.86654 2.70858V5.418C10.0167 5.71402 10.8665 6.75809 10.8665 8.00065C10.8665 8.49522 10.7319 8.95834 10.4973 9.35536L12.4131 11.2711ZM11.4702 12.2139L9.55445 10.2981C9.15746 10.5327 8.69438 10.6673 8.19987 10.6673C7.70536 10.6673 7.24228 10.5327 6.84529 10.2981L4.9295 12.2139C5.83261 12.9159 6.96742 13.334 8.19987 13.334C9.43232 13.334 10.5671 12.9159 11.4702 12.2139ZM5.5332 8.00065C5.5332 8.49522 5.66784 8.95834 5.90245 9.35536L3.98668 11.2711C3.28461 10.368 2.86654 9.23315 2.86654 8.00065C2.86654 5.28091 4.90233 3.03665 7.5332 2.70858V5.418C6.38305 5.71402 5.5332 6.75809 5.5332 8.00065ZM8.19987 9.33398C8.93625 9.33398 9.5332 8.73703 9.5332 8.00065C9.5332 7.26427 8.93625 6.66732 8.19987 6.66732C7.46349 6.66732 6.86654 7.26427 6.86654 8.00065C6.86654 8.73703 7.46349 9.33398 8.19987 9.33398Z" fill="#FCFCFD"/>
</svg>
