<svg width="26" height="26" viewBox="0 0 26 26" fill="none" xmlns="http://www.w3.org/2000/svg">
<path fill-rule="evenodd" clip-rule="evenodd" d="M13 10.5625C11.6538 10.5625 10.5625 11.6538 10.5625 13C10.5625 14.3462 11.6538 15.4375 13 15.4375C14.3462 15.4375 15.4375 14.3462 15.4375 13C15.4375 11.6538 14.3462 10.5625 13 10.5625ZM8.9375 13C8.9375 10.7563 10.7563 8.9375 13 8.9375C15.2437 8.9375 17.0625 10.7563 17.0625 13C17.0625 15.2437 15.2437 17.0625 13 17.0625C10.7563 17.0625 8.9375 15.2437 8.9375 13Z" fill="#3772FF"/>
<path fill-rule="evenodd" clip-rule="evenodd" d="M12.9998 7.3125C9.48207 7.3125 6.27648 9.33718 4.13944 11.1343C2.9431 12.1404 2.9431 13.8596 4.13944 14.8657C6.27648 16.6628 9.48207 18.6875 12.9998 18.6875C16.5175 18.6875 19.7231 16.6628 21.8601 14.8657C23.0564 13.8596 23.0564 12.1404 21.8601 11.1343C19.7231 9.33718 16.5175 7.3125 12.9998 7.3125ZM3.09357 9.89062C5.31945 8.01877 8.89812 5.6875 12.9998 5.6875C17.1014 5.6875 20.6801 8.01877 22.906 9.89062C24.8745 11.546 24.8745 14.454 22.906 16.1094C20.6801 17.9812 17.1014 20.3125 12.9998 20.3125C8.89812 20.3125 5.31945 17.9812 3.09357 16.1094C1.12506 14.454 1.12506 11.546 3.09357 9.89062Z" fill="#3772FF"/>
</svg>
