<svg width="26" height="26" viewBox="0 0 26 26" fill="none" xmlns="http://www.w3.org/2000/svg">
<path fill-rule="evenodd" clip-rule="evenodd" d="M22.2399 3.75751C22.5572 4.07481 22.5572 4.58925 22.2399 4.90656L4.90656 22.2399C4.58925 22.5572 4.07481 22.5572 3.75751 22.2399C3.44021 21.9226 3.44021 21.4081 3.75751 21.0908L21.0908 3.75751C21.4081 3.44021 21.9226 3.44021 22.2399 3.75751Z" fill="#B6B6B6"/>
<path fill-rule="evenodd" clip-rule="evenodd" d="M16.3363 10.6813C15.6024 9.62731 14.3817 8.9375 13 8.9375C10.7563 8.9375 8.9375 10.7563 8.9375 13C8.9375 14.3817 9.62731 15.6024 10.6813 16.3363L11.8617 15.1559C11.089 14.7471 10.5625 13.935 10.5625 13C10.5625 11.6538 11.6538 10.5625 13 10.5625C13.935 10.5625 14.7471 11.089 15.1559 11.8617L16.3363 10.6813ZM14.1853 15.1304C14.5814 14.9095 14.9095 14.5814 15.1304 14.1853L17.0044 12.3113C17.0426 12.5352 17.0625 12.7653 17.0625 13C17.0625 15.2437 15.2437 17.0625 13 17.0625C12.7653 17.0625 12.5352 17.0426 12.3113 17.0044L14.1853 15.1304Z" fill="#B6B6B6"/>
<path fill-rule="evenodd" clip-rule="evenodd" d="M4.13944 11.1343C6.27648 9.33718 9.48207 7.3125 12.9998 7.3125C14.8946 7.3125 16.699 7.89999 18.2945 8.72294L19.4951 7.52227C17.6197 6.48533 15.3992 5.6875 12.9998 5.6875C8.89812 5.6875 5.31945 8.01877 3.09356 9.89062C1.12506 11.546 1.12506 14.454 3.09357 16.1094C4.31943 17.1403 5.95561 18.3105 7.86349 19.1539L9.10648 17.9109C7.16491 17.1572 5.45095 15.9686 4.13944 14.8657C2.9431 13.8596 2.9431 12.1404 4.13944 11.1343ZM10.8672 18.4483L9.53712 19.7784C10.632 20.1108 11.7933 20.3125 12.9998 20.3125C17.1014 20.3125 20.6801 17.9812 22.906 16.1094C24.8745 14.454 24.8745 11.546 22.906 9.89062C22.3302 9.40641 21.6639 8.89147 20.9214 8.39408L19.7482 9.56733C20.5298 10.0721 21.24 10.6128 21.8601 11.1343C23.0564 12.1404 23.0564 13.8596 21.8601 14.8657C19.7231 16.6628 16.5175 18.6875 12.9998 18.6875C12.2734 18.6875 11.5603 18.6012 10.8672 18.4483Z" fill="#B6B6B6"/>
</svg>
