<svg width="60" height="60" viewBox="0 0 60 60" fill="none" xmlns="http://www.w3.org/2000/svg">
<rect x="0.5" y="0.5" width="59" height="59" rx="9.5" fill="#FFD502" stroke="#E3E3E3"/>
<ellipse cx="29.5" cy="26.7546" rx="20.5" ry="15.7546" fill="black"/>
<line x1="15.3164" y1="22.9062" x2="21.2886" y2="22.9062" stroke="#FFD502" stroke-width="2" stroke-linecap="round"/>
<line x1="23.2852" y1="28.9805" x2="27.3592" y2="28.9805" stroke="#FFD502" stroke-width="2" stroke-linecap="round"/>
<line x1="25.1836" y1="23.0078" x2="25.1836" y2="23.2856" stroke="black" stroke-width="2" stroke-linecap="round"/>
<line x1="25.1836" y1="22.9062" x2="25.0817" y2="22.9062" stroke="#FFD502" stroke-width="2" stroke-linecap="round"/>
<line x1="31.6406" y1="31.2578" x2="35.3351" y2="31.2578" stroke="#FFD502" stroke-width="2" stroke-linecap="round"/>
<line x1="38.2305" y1="27.8084" x2="42.8903" y2="23.1486" stroke="#FFD502" stroke-width="2" stroke-linecap="round"/>
<line x1="40.39" y1="27.1604" x2="43.3832" y2="31.242" stroke="#FFD502" stroke-width="2" stroke-linecap="round"/>
<line x1="18.25" y1="31.2578" x2="18.25" y2="23.7671" stroke="#FFD502" stroke-width="2" stroke-linecap="round"/>
<line x1="17.3628" y1="47.0021" x2="19.5657" y2="37.5608" stroke="black" stroke-width="2" stroke-linecap="round"/>
<line x1="17.9964" y1="46.8141" x2="26.9711" y2="40.7242" stroke="black" stroke-width="2" stroke-linecap="round"/>
<line x1="31.5352" y1="31.2578" x2="31.5352" y2="23.0078" stroke="#FFD502" stroke-width="2" stroke-linecap="round"/>
<line x1="37.9922" y1="31.2578" x2="37.9922" y2="23.0078" stroke="#FFD502" stroke-width="2" stroke-linecap="round"/>
<line x1="21.7102" y1="31.3486" x2="24.9299" y2="22.9656" stroke="#FFD502" stroke-width="2" stroke-linecap="round"/>
<line x1="1" y1="-1" x2="9.97999" y2="-1" transform="matrix(-0.35854 -0.933514 -0.933514 0.35854 28.1211 32.6406)" stroke="#FFD502" stroke-width="2" stroke-linecap="round"/>
<ellipse cx="21.8845" cy="40.5324" rx="6.41678" ry="2.97415" transform="rotate(-56.0221 21.8845 40.5324)" fill="black"/>
</svg>
