<svg width="22" height="22" viewBox="0 0 22 22" fill="none" xmlns="http://www.w3.org/2000/svg">
<g clip-path="url(#clip0_151_31609)">
<path fill-rule="evenodd" clip-rule="evenodd" d="M11.0005 1.6924C8.91607 1.6924 7.22631 3.33412 7.22631 5.35928C7.22631 7.38444 8.91607 9.02616 11.0005 9.02616C13.0849 9.02616 14.7747 7.38444 14.7747 5.35928C14.7747 3.33412 13.0849 1.6924 11.0005 1.6924ZM5.48438 5.35928C5.48438 2.39943 7.95403 0 11.0005 0C14.047 0 16.5166 2.39943 16.5166 5.35928C16.5166 8.31913 14.047 10.7186 11.0005 10.7186C7.95403 10.7186 5.48438 8.31913 5.48438 5.35928Z" fill="#3772FF"/>
<path fill-rule="evenodd" clip-rule="evenodd" d="M4.20962 17.2349C3.84041 17.7191 3.74194 18.0521 3.74194 18.1925C3.74194 18.2726 3.78333 18.4501 4.08759 18.7122C4.39084 18.9734 4.87933 19.2473 5.55772 19.4945C6.90808 19.9864 8.83202 20.308 11 20.308C13.168 20.308 15.0919 19.9864 16.4423 19.4945C17.1207 19.2473 17.6092 18.9734 17.9124 18.7122C18.2167 18.4501 18.2581 18.2726 18.2581 18.1925C18.2581 18.0521 18.1596 17.7191 17.7904 17.2349C17.4408 16.7765 16.9139 16.27 16.239 15.7977C14.8867 14.8512 13.0287 14.1026 11 14.1026C8.97125 14.1026 7.11332 14.8512 5.76099 15.7977C5.08612 16.27 4.55918 16.7765 4.20962 17.2349ZM4.74282 14.4245C6.33263 13.3118 8.5392 12.4102 11 12.4102C13.4608 12.4102 15.6674 13.3118 17.2572 14.4245C18.0534 14.9817 18.7169 15.607 19.19 16.2275C19.6435 16.8222 20 17.5151 20 18.1925C20 18.9304 19.5865 19.532 19.068 19.9785C18.5486 20.426 17.8466 20.7903 17.0539 21.0791C15.4621 21.659 13.3216 22.0004 11 22.0004C8.67844 22.0004 6.53786 21.659 4.94609 21.0791C4.15342 20.7903 3.45144 20.426 2.93198 19.9785C2.41354 19.532 2 18.9304 2 18.1925C2 17.5151 2.35646 16.8222 2.80996 16.2275C3.2831 15.607 3.94663 14.9817 4.74282 14.4245Z" fill="#3772FF"/>
</g>
<defs>
<clipPath id="clip0_151_31609">
<rect width="22" height="22" fill="white"/>
</clipPath>
</defs>
</svg>
