<svg width="22" height="22" viewBox="0 0 22 22" fill="none" xmlns="http://www.w3.org/2000/svg">
<path fill-rule="evenodd" clip-rule="evenodd" d="M1 9.87073C1 6.91103 3.48109 4.51172 6.54167 4.51172H15.875C18.9356 4.51172 21.4167 6.91103 21.4167 9.87073V16.64C21.4167 19.5997 18.9356 21.999 15.875 21.999H6.54167C3.48109 21.999 1 19.5997 1 16.64V9.87073ZM6.54167 6.20404C4.44759 6.20404 2.75 7.84567 2.75 9.87073V16.64C2.75 18.6651 4.44759 20.3067 6.54167 20.3067H15.875C17.9691 20.3067 19.6667 18.6651 19.6667 16.64V9.87073C19.6667 7.84567 17.9691 6.20404 15.875 6.20404H6.54167Z" fill="#3772FF"/>
<path fill-rule="evenodd" clip-rule="evenodd" d="M11.2083 11.8447C10.4029 11.8447 9.75 12.4761 9.75 13.2549C9.75 14.0338 10.4029 14.6652 11.2083 14.6652C12.0137 14.6652 12.6667 14.0338 12.6667 13.2549C12.6667 12.4761 12.0137 11.8447 11.2083 11.8447ZM8 13.2549C8 11.5414 9.43642 10.1523 11.2083 10.1523C12.9802 10.1523 14.4167 11.5414 14.4167 13.2549C14.4167 14.9684 12.9802 16.3575 11.2083 16.3575C9.43642 16.3575 8 14.9684 8 13.2549Z" fill="#3772FF"/>
<path fill-rule="evenodd" clip-rule="evenodd" d="M11.2096 1.69232C9.11556 1.69232 7.41797 3.33395 7.41797 5.35901H5.66797C5.66797 2.39931 8.14906 0 11.2096 0C14.2702 0 16.7513 2.39931 16.7513 5.35901H15.0013C15.0013 3.33395 13.3037 1.69232 11.2096 1.69232Z" fill="#3772FF"/>
</svg>
